<svg xmlns="http://www.w3.org/2000/svg" width="560" height="460" viewBox="0 0 560 460">
<rect width="100%" height="100%" fill="#ffffff"/>
<text x="52" y="26" font-family="sans-serif" font-size="14" font-weight="bold" fill="#0f172a">MARK0_000</text>
<circle cx="205" cy="276" r="2.6" fill="rgb(165,64,135)" fill-opacity="0.85"/>
<circle cx="189" cy="240" r="2.6" fill="rgb(237,31,59)" fill-opacity="0.85"/>
<circle cx="99" cy="254" r="2.6" fill="rgb(219,39,78)" fill-opacity="0.85"/>
<circle cx="252" cy="285" r="2.6" fill="rgb(163,65,137)" fill-opacity="0.85"/>
<circle cx="219" cy="287" r="2.6" fill="rgb(147,73,155)" fill-opacity="0.85"/>
<circle cx="216" cy="287" r="2.6" fill="rgb(210,43,88)" fill-opacity="0.85"/>
<circle cx="138" cy="274" r="2.6" fill="rgb(214,42,84)" fill-opacity="0.85"/>
<circle cx="188" cy="281" r="2.6" fill="rgb(152,71,149)" fill-opacity="0.85"/>
<circle cx="235" cy="281" r="2.6" fill="rgb(212,43,86)" fill-opacity="0.85"/>
<circle cx="246" cy="284" r="2.6" fill="rgb(228,35,69)" fill-opacity="0.85"/>
<circle cx="146" cy="370" r="2.6" fill="rgb(180,57,119)" fill-opacity="0.85"/>
<circle cx="241" cy="285" r="2.6" fill="rgb(219,39,78)" fill-opacity="0.85"/>
<circle cx="258" cy="291" r="2.6" fill="rgb(227,35,70)" fill-opacity="0.85"/>
<circle cx="282" cy="285" r="2.6" fill="rgb(235,32,61)" fill-opacity="0.85"/>
<circle cx="263" cy="308" r="2.6" fill="rgb(225,36,72)" fill-opacity="0.85"/>
<circle cx="87" cy="198" r="2.6" fill="rgb(173,61,127)" fill-opacity="0.85"/>
<circle cx="89" cy="328" r="2.6" fill="rgb(152,71,149)" fill-opacity="0.85"/>
<circle cx="229" cy="289" r="2.6" fill="rgb(201,48,98)" fill-opacity="0.85"/>
<circle cx="56" cy="236" r="2.6" fill="rgb(211,43,87)" fill-opacity="0.85"/>
<circle cx="234" cy="278" r="2.6" fill="rgb(196,50,102)" fill-opacity="0.85"/>
<circle cx="193" cy="280" r="2.6" fill="rgb(193,51,105)" fill-opacity="0.85"/>
<circle cx="70" cy="234" r="2.6" fill="rgb(215,41,82)" fill-opacity="0.85"/>
<circle cx="205" cy="272" r="2.6" fill="rgb(211,43,86)" fill-opacity="0.85"/>
<circle cx="274" cy="285" r="2.6" fill="rgb(225,36,72)" fill-opacity="0.85"/>
<circle cx="181" cy="316" r="2.6" fill="rgb(236,31,61)" fill-opacity="0.85"/>
<circle cx="199" cy="278" r="2.6" fill="rgb(155,69,146)" fill-opacity="0.85"/>
<circle cx="283" cy="280" r="2.6" fill="rgb(235,32,61)" fill-opacity="0.85"/>
<circle cx="269" cy="284" r="2.6" fill="rgb(240,30,57)" fill-opacity="0.85"/>
<circle cx="244" cy="270" r="2.6" fill="rgb(215,41,83)" fill-opacity="0.85"/>
<circle cx="199" cy="270" r="2.6" fill="rgb(223,37,74)" fill-opacity="0.85"/>
<circle cx="194" cy="310" r="2.6" fill="rgb(228,35,69)" fill-opacity="0.85"/>
<circle cx="185" cy="269" r="2.6" fill="rgb(168,63,132)" fill-opacity="0.85"/>
<circle cx="247" cy="280" r="2.6" fill="rgb(172,61,128)" fill-opacity="0.85"/>
<circle cx="254" cy="278" r="2.6" fill="rgb(201,47,97)" fill-opacity="0.85"/>
<circle cx="197" cy="268" r="2.6" fill="rgb(201,47,97)" fill-opacity="0.85"/>
<circle cx="263" cy="286" r="2.6" fill="rgb(221,38,76)" fill-opacity="0.85"/>
<circle cx="221" cy="297" r="2.6" fill="rgb(151,71,150)" fill-opacity="0.85"/>
<circle cx="199" cy="271" r="2.6" fill="rgb(195,50,104)" fill-opacity="0.85"/>
<circle cx="184" cy="305" r="2.6" fill="rgb(147,73,155)" fill-opacity="0.85"/>
<circle cx="281" cy="287" r="2.6" fill="rgb(236,31,60)" fill-opacity="0.85"/>
<circle cx="311" cy="284" r="2.6" fill="rgb(231,34,66)" fill-opacity="0.85"/>
<circle cx="143" cy="343" r="2.6" fill="rgb(197,49,101)" fill-opacity="0.85"/>
<circle cx="249" cy="285" r="2.6" fill="rgb(214,42,84)" fill-opacity="0.85"/>
<circle cx="172" cy="271" r="2.6" fill="rgb(223,37,74)" fill-opacity="0.85"/>
<circle cx="256" cy="284" r="2.6" fill="rgb(219,39,79)" fill-opacity="0.85"/>
<circle cx="250" cy="289" r="2.6" fill="rgb(190,53,109)" fill-opacity="0.85"/>
<circle cx="222" cy="296" r="2.6" fill="rgb(124,84,179)" fill-opacity="0.85"/>
<circle cx="259" cy="280" r="2.6" fill="rgb(219,39,78)" fill-opacity="0.85"/>
<circle cx="214" cy="277" r="2.6" fill="rgb(233,32,63)" fill-opacity="0.85"/>
<circle cx="270" cy="280" r="2.6" fill="rgb(219,39,78)" fill-opacity="0.85"/>
<circle cx="161" cy="256" r="2.6" fill="rgb(198,49,100)" fill-opacity="0.85"/>
<circle cx="239" cy="286" r="2.6" fill="rgb(206,45,92)" fill-opacity="0.85"/>
<circle cx="385" cy="327" r="2.6" fill="rgb(194,51,105)" fill-opacity="0.85"/>
<circle cx="268" cy="294" r="2.6" fill="rgb(157,69,144)" fill-opacity="0.85"/>
<circle cx="459" cy="293" r="2.6" fill="rgb(184,55,115)" fill-opacity="0.85"/>
<circle cx="189" cy="281" r="2.6" fill="rgb(222,226,232)" fill-opacity="0.85"/>
<circle cx="482" cy="256" r="2.6" fill="rgb(222,226,232)" fill-opacity="0.85"/>
<circle cx="264" cy="253" r="2.6" fill="rgb(222,226,232)" fill-opacity="0.85"/>
<circle cx="304" cy="261" r="2.6" fill="rgb(222,226,232)" fill-opacity="0.85"/>
<circle cx="277" cy="271" r="2.6" fill="rgb(222,226,232)" fill-opacity="0.85"/>
<circle cx="252" cy="236" r="2.6" fill="rgb(83,120,236)" fill-opacity="0.85"/>
<circle cx="262" cy="250" r="2.6" fill="rgb(222,226,232)" fill-opacity="0.85"/>
<circle cx="261" cy="253" r="2.6" fill="rgb(222,226,232)" fill-opacity="0.85"/>
<circle cx="258" cy="255" r="2.6" fill="rgb(222,226,232)" fill-opacity="0.85"/>
<circle cx="250" cy="254" r="2.6" fill="rgb(222,226,232)" fill-opacity="0.85"/>
<circle cx="284" cy="255" r="2.6" fill="rgb(222,226,232)" fill-opacity="0.85"/>
<circle cx="52" cy="337" r="2.6" fill="rgb(222,226,232)" fill-opacity="0.85"/>
<circle cx="267" cy="257" r="2.6" fill="rgb(222,226,232)" fill-opacity="0.85"/>
<circle cx="286" cy="246" r="2.6" fill="rgb(222,226,232)" fill-opacity="0.85"/>
<circle cx="271" cy="258" r="2.6" fill="rgb(222,226,232)" fill-opacity="0.85"/>
<circle cx="274" cy="257" r="2.6" fill="rgb(222,226,232)" fill-opacity="0.85"/>
<circle cx="320" cy="244" r="2.6" fill="rgb(222,226,232)" fill-opacity="0.85"/>
<circle cx="301" cy="141" r="2.6" fill="rgb(222,226,232)" fill-opacity="0.85"/>
<circle cx="271" cy="253" r="2.6" fill="rgb(222,226,232)" fill-opacity="0.85"/>
<circle cx="137" cy="166" r="2.6" fill="rgb(84,121,236)" fill-opacity="0.85"/>
<circle cx="265" cy="252" r="2.6" fill="rgb(222,226,232)" fill-opacity="0.85"/>
<circle cx="242" cy="239" r="2.6" fill="rgb(89,124,236)" fill-opacity="0.85"/>
<circle cx="278" cy="241" r="2.6" fill="rgb(222,226,232)" fill-opacity="0.85"/>
<circle cx="263" cy="253" r="2.6" fill="rgb(222,226,232)" fill-opacity="0.85"/>
<circle cx="289" cy="260" r="2.6" fill="rgb(222,226,232)" fill-opacity="0.85"/>
<circle cx="166" cy="331" r="2.6" fill="rgb(222,226,232)" fill-opacity="0.85"/>
<circle cx="161" cy="261" r="2.6" fill="rgb(222,226,232)" fill-opacity="0.85"/>
<circle cx="316" cy="245" r="2.6" fill="rgb(222,226,232)" fill-opacity="0.85"/>
<circle cx="254" cy="256" r="2.6" fill="rgb(85,121,236)" fill-opacity="0.85"/>
<circle cx="272" cy="241" r="2.6" fill="rgb(222,226,232)" fill-opacity="0.85"/>
<circle cx="243" cy="238" r="2.6" fill="rgb(222,226,232)" fill-opacity="0.85"/>
<circle cx="270" cy="245" r="2.6" fill="rgb(222,226,232)" fill-opacity="0.85"/>
<circle cx="263" cy="268" r="2.6" fill="rgb(222,226,232)" fill-opacity="0.85"/>
<circle cx="136" cy="166" r="2.6" fill="rgb(222,226,232)" fill-opacity="0.85"/>
<circle cx="260" cy="244" r="2.6" fill="rgb(222,226,232)" fill-opacity="0.85"/>
<circle cx="249" cy="259" r="2.6" fill="rgb(222,226,232)" fill-opacity="0.85"/>
<circle cx="266" cy="265" r="2.6" fill="rgb(222,226,232)" fill-opacity="0.85"/>
<circle cx="263" cy="256" r="2.6" fill="rgb(222,226,232)" fill-opacity="0.85"/>
<circle cx="216" cy="250" r="2.6" fill="rgb(222,226,232)" fill-opacity="0.85"/>
<circle cx="262" cy="260" r="2.6" fill="rgb(222,226,232)" fill-opacity="0.85"/>
<circle cx="258" cy="248" r="2.6" fill="rgb(222,226,232)" fill-opacity="0.85"/>
<circle cx="267" cy="247" r="2.6" fill="rgb(222,226,232)" fill-opacity="0.85"/>
<circle cx="267" cy="247" r="2.6" fill="rgb(222,226,232)" fill-opacity="0.85"/>
<circle cx="132" cy="73" r="2.6" fill="rgb(222,226,232)" fill-opacity="0.85"/>
<circle cx="153" cy="190" r="2.6" fill="rgb(222,226,232)" fill-opacity="0.85"/>
<circle cx="267" cy="248" r="2.6" fill="rgb(222,226,232)" fill-opacity="0.85"/>
<circle cx="232" cy="259" r="2.6" fill="rgb(222,226,232)" fill-opacity="0.85"/>
<circle cx="262" cy="238" r="2.6" fill="rgb(86,122,236)" fill-opacity="0.85"/>
<circle cx="262" cy="249" r="2.6" fill="rgb(222,226,232)" fill-opacity="0.85"/>
<circle cx="247" cy="253" r="2.6" fill="rgb(222,226,232)" fill-opacity="0.85"/>
<circle cx="248" cy="253" r="2.6" fill="rgb(222,226,232)" fill-opacity="0.85"/>
<circle cx="254" cy="253" r="2.6" fill="rgb(222,226,232)" fill-opacity="0.85"/>
<circle cx="270" cy="171" r="2.6" fill="rgb(222,226,232)" fill-opacity="0.85"/>
<circle cx="312" cy="234" r="2.6" fill="rgb(222,226,232)" fill-opacity="0.85"/>
<circle cx="260" cy="265" r="2.6" fill="rgb(222,226,232)" fill-opacity="0.85"/>
<circle cx="236" cy="239" r="2.6" fill="rgb(222,226,232)" fill-opacity="0.85"/>
<circle cx="282" cy="367" r="2.6" fill="rgb(222,226,232)" fill-opacity="0.85"/>
<circle cx="228" cy="243" r="2.6" fill="rgb(222,226,232)" fill-opacity="0.85"/>
<circle cx="213" cy="243" r="2.6" fill="rgb(222,226,232)" fill-opacity="0.85"/>
<circle cx="87" cy="257" r="2.6" fill="rgb(222,226,232)" fill-opacity="0.85"/>
<circle cx="323" cy="217" r="2.6" fill="rgb(222,226,232)" fill-opacity="0.85"/>
<circle cx="147" cy="260" r="2.6" fill="rgb(222,226,232)" fill-opacity="0.85"/>
<circle cx="246" cy="245" r="2.6" fill="rgb(222,226,232)" fill-opacity="0.85"/>
<circle cx="261" cy="260" r="2.6" fill="rgb(89,125,236)" fill-opacity="0.85"/>
<circle cx="371" cy="211" r="2.6" fill="rgb(222,226,232)" fill-opacity="0.85"/>
<circle cx="278" cy="225" r="2.6" fill="rgb(222,226,232)" fill-opacity="0.85"/>
<circle cx="186" cy="269" r="2.6" fill="rgb(222,226,232)" fill-opacity="0.85"/>
<circle cx="236" cy="235" r="2.6" fill="rgb(222,226,232)" fill-opacity="0.85"/>
<circle cx="244" cy="268" r="2.6" fill="rgb(87,123,236)" fill-opacity="0.85"/>
<circle cx="262" cy="253" r="2.6" fill="rgb(83,120,236)" fill-opacity="0.85"/>
<circle cx="221" cy="246" r="2.6" fill="rgb(222,226,232)" fill-opacity="0.85"/>
<circle cx="260" cy="256" r="2.6" fill="rgb(222,226,232)" fill-opacity="0.85"/>
<circle cx="226" cy="253" r="2.6" fill="rgb(222,226,232)" fill-opacity="0.85"/>
<circle cx="249" cy="220" r="2.6" fill="rgb(222,226,232)" fill-opacity="0.85"/>
<circle cx="228" cy="246" r="2.6" fill="rgb(222,226,232)" fill-opacity="0.85"/>
<circle cx="230" cy="314" r="2.6" fill="rgb(222,226,232)" fill-opacity="0.85"/>
<circle cx="171" cy="261" r="2.6" fill="rgb(222,226,232)" fill-opacity="0.85"/>
<circle cx="252" cy="244" r="2.6" fill="rgb(222,226,232)" fill-opacity="0.85"/>
<circle cx="281" cy="328" r="2.6" fill="rgb(222,226,232)" fill-opacity="0.85"/>
<circle cx="200" cy="263" r="2.6" fill="rgb(222,226,232)" fill-opacity="0.85"/>
<circle cx="237" cy="234" r="2.6" fill="rgb(222,226,232)" fill-opacity="0.85"/>
<circle cx="202" cy="232" r="2.6" fill="rgb(81,118,236)" fill-opacity="0.85"/>
<circle cx="275" cy="239" r="2.6" fill="rgb(222,226,232)" fill-opacity="0.85"/>
<circle cx="269" cy="189" r="2.6" fill="rgb(222,226,232)" fill-opacity="0.85"/>
<circle cx="491" cy="262" r="2.6" fill="rgb(222,226,232)" fill-opacity="0.85"/>
<circle cx="242" cy="218" r="2.6" fill="rgb(222,226,232)" fill-opacity="0.85"/>
<circle cx="219" cy="258" r="2.6" fill="rgb(222,226,232)" fill-opacity="0.85"/>
<circle cx="238" cy="269" r="2.6" fill="rgb(222,226,232)" fill-opacity="0.85"/>
<circle cx="344" cy="328" r="2.6" fill="rgb(84,121,236)" fill-opacity="0.85"/>
<circle cx="197" cy="243" r="2.6" fill="rgb(222,226,232)" fill-opacity="0.85"/>
<circle cx="122" cy="186" r="2.6" fill="rgb(222,226,232)" fill-opacity="0.85"/>
<circle cx="218" cy="253" r="2.6" fill="rgb(222,226,232)" fill-opacity="0.85"/>
<circle cx="258" cy="264" r="2.6" fill="rgb(222,226,232)" fill-opacity="0.85"/>
<circle cx="203" cy="259" r="2.6" fill="rgb(90,125,236)" fill-opacity="0.85"/>
<circle cx="235" cy="260" r="2.6" fill="rgb(222,226,232)" fill-opacity="0.85"/>
<circle cx="184" cy="154" r="2.6" fill="rgb(222,226,232)" fill-opacity="0.85"/>
<circle cx="233" cy="236" r="2.6" fill="rgb(222,226,232)" fill-opacity="0.85"/>
<circle cx="254" cy="260" r="2.6" fill="rgb(222,226,232)" fill-opacity="0.85"/>
<circle cx="220" cy="267" r="2.6" fill="rgb(222,226,232)" fill-opacity="0.85"/>
<circle cx="240" cy="326" r="2.6" fill="rgb(222,226,232)" fill-opacity="0.85"/>
<circle cx="218" cy="250" r="2.6" fill="rgb(222,226,232)" fill-opacity="0.85"/>
<circle cx="239" cy="246" r="2.6" fill="rgb(222,226,232)" fill-opacity="0.85"/>
<circle cx="218" cy="264" r="2.6" fill="rgb(222,226,232)" fill-opacity="0.85"/>
<circle cx="264" cy="358" r="2.6" fill="rgb(222,226,232)" fill-opacity="0.85"/>
<circle cx="159" cy="221" r="2.6" fill="rgb(222,226,232)" fill-opacity="0.85"/>
<circle cx="240" cy="271" r="2.6" fill="rgb(222,226,232)" fill-opacity="0.85"/>
<circle cx="146" cy="366" r="2.6" fill="rgb(222,226,232)" fill-opacity="0.85"/>
<circle cx="196" cy="247" r="2.6" fill="rgb(222,226,232)" fill-opacity="0.85"/>
<circle cx="212" cy="352" r="2.6" fill="rgb(222,226,232)" fill-opacity="0.85"/>
<circle cx="273" cy="237" r="2.6" fill="rgb(222,226,232)" fill-opacity="0.85"/>
<circle cx="287" cy="290" r="2.6" fill="rgb(89,124,236)" fill-opacity="0.85"/>
<circle cx="259" cy="283" r="2.6" fill="rgb(222,226,232)" fill-opacity="0.85"/>
<circle cx="372" cy="330" r="2.6" fill="rgb(222,226,232)" fill-opacity="0.85"/>
<circle cx="218" cy="271" r="2.6" fill="rgb(222,226,232)" fill-opacity="0.85"/>
<circle cx="263" cy="284" r="2.6" fill="rgb(222,226,232)" fill-opacity="0.85"/>
<circle cx="290" cy="290" r="2.6" fill="rgb(222,226,232)" fill-opacity="0.85"/>
<circle cx="372" cy="331" r="2.6" fill="rgb(222,226,232)" fill-opacity="0.85"/>
<circle cx="309" cy="297" r="2.6" fill="rgb(222,226,232)" fill-opacity="0.85"/>
<circle cx="406" cy="341" r="2.6" fill="rgb(222,226,232)" fill-opacity="0.85"/>
<circle cx="324" cy="310" r="2.6" fill="rgb(222,226,232)" fill-opacity="0.85"/>
<circle cx="287" cy="291" r="2.6" fill="rgb(222,226,232)" fill-opacity="0.85"/>
<circle cx="301" cy="295" r="2.6" fill="rgb(222,226,232)" fill-opacity="0.85"/>
<circle cx="288" cy="292" r="2.6" fill="rgb(222,226,232)" fill-opacity="0.85"/>
<circle cx="264" cy="283" r="2.6" fill="rgb(222,226,232)" fill-opacity="0.85"/>
<circle cx="383" cy="190" r="2.6" fill="rgb(222,226,232)" fill-opacity="0.85"/>
<circle cx="290" cy="294" r="2.6" fill="rgb(222,226,232)" fill-opacity="0.85"/>
<circle cx="246" cy="282" r="2.6" fill="rgb(222,226,232)" fill-opacity="0.85"/>
<circle cx="327" cy="312" r="2.6" fill="rgb(222,226,232)" fill-opacity="0.85"/>
<circle cx="334" cy="313" r="2.6" fill="rgb(222,226,232)" fill-opacity="0.85"/>
<circle cx="362" cy="315" r="2.6" fill="rgb(222,226,232)" fill-opacity="0.85"/>
<circle cx="254" cy="285" r="2.6" fill="rgb(222,226,232)" fill-opacity="0.85"/>
<circle cx="395" cy="342" r="2.6" fill="rgb(222,226,232)" fill-opacity="0.85"/>
<circle cx="302" cy="302" r="2.6" fill="rgb(222,226,232)" fill-opacity="0.85"/>
<circle cx="403" cy="332" r="2.6" fill="rgb(222,226,232)" fill-opacity="0.85"/>
<circle cx="215" cy="274" r="2.6" fill="rgb(90,125,236)" fill-opacity="0.85"/>
<circle cx="227" cy="277" r="2.6" fill="rgb(222,226,232)" fill-opacity="0.85"/>
<circle cx="269" cy="282" r="2.6" fill="rgb(222,226,232)" fill-opacity="0.85"/>
<circle cx="229" cy="280" r="2.6" fill="rgb(222,226,232)" fill-opacity="0.85"/>
<circle cx="333" cy="230" r="2.6" fill="rgb(222,226,232)" fill-opacity="0.85"/>
<circle cx="304" cy="300" r="2.6" fill="rgb(222,226,232)" fill-opacity="0.85"/>
<circle cx="325" cy="306" r="2.6" fill="rgb(222,226,232)" fill-opacity="0.85"/>
<circle cx="305" cy="285" r="2.6" fill="rgb(222,226,232)" fill-opacity="0.85"/>
<circle cx="297" cy="291" r="2.6" fill="rgb(222,226,232)" fill-opacity="0.85"/>
<circle cx="361" cy="327" r="2.6" fill="rgb(222,226,232)" fill-opacity="0.85"/>
<circle cx="188" cy="266" r="2.6" fill="rgb(86,122,236)" fill-opacity="0.85"/>
<circle cx="331" cy="312" r="2.6" fill="rgb(222,226,232)" fill-opacity="0.85"/>
<circle cx="180" cy="266" r="2.6" fill="rgb(85,121,236)" fill-opacity="0.85"/>
<circle cx="343" cy="314" r="2.6" fill="rgb(222,226,232)" fill-opacity="0.85"/>
<circle cx="346" cy="183" r="2.6" fill="rgb(222,226,232)" fill-opacity="0.85"/>
<circle cx="292" cy="296" r="2.6" fill="rgb(83,120,236)" fill-opacity="0.85"/>
<circle cx="348" cy="329" r="2.6" fill="rgb(222,226,232)" fill-opacity="0.85"/>
<circle cx="259" cy="285" r="2.6" fill="rgb(222,226,232)" fill-opacity="0.85"/>
<circle cx="318" cy="298" r="2.6" fill="rgb(82,119,236)" fill-opacity="0.85"/>
<circle cx="280" cy="290" r="2.6" fill="rgb(222,226,232)" fill-opacity="0.85"/>
<circle cx="336" cy="233" r="2.6" fill="rgb(222,226,232)" fill-opacity="0.85"/>
<circle cx="213" cy="273" r="2.6" fill="rgb(84,120,236)" fill-opacity="0.85"/>
<circle cx="285" cy="293" r="2.6" fill="rgb(222,226,232)" fill-opacity="0.85"/>
<circle cx="336" cy="209" r="2.6" fill="rgb(222,226,232)" fill-opacity="0.85"/>
<circle cx="312" cy="303" r="2.6" fill="rgb(222,226,232)" fill-opacity="0.85"/>
<circle cx="428" cy="369" r="2.6" fill="rgb(222,226,232)" fill-opacity="0.85"/>
<circle cx="305" cy="317" r="2.6" fill="rgb(222,226,232)" fill-opacity="0.85"/>
<circle cx="299" cy="288" r="2.6" fill="rgb(222,226,232)" fill-opacity="0.85"/>
<circle cx="290" cy="293" r="2.6" fill="rgb(222,226,232)" fill-opacity="0.85"/>
<circle cx="508" cy="408" r="2.6" fill="rgb(222,226,232)" fill-opacity="0.85"/>
<circle cx="302" cy="293" r="2.6" fill="rgb(222,226,232)" fill-opacity="0.85"/>
<rect x="412" y="430" width="4" height="9" fill="rgb(222,226,232)"/>
<rect x="416" y="430" width="4" height="9" fill="rgb(208,215,232)"/>
<rect x="420" y="430" width="4" height="9" fill="rgb(195,205,232)"/>
<rect x="424" y="430" width="4" height="9" fill="rgb(182,195,233)"/>
<rect x="428" y="430" width="4" height="9" fill="rgb(169,185,233)"/>
<rect x="432" y="430" width="4" height="9" fill="rgb(155,175,234)"/>
<rect x="436" y="430" width="4" height="9" fill="rgb(142,165,234)"/>
<rect x="440" y="430" width="4" height="9" fill="rgb(129,155,235)"/>
<rect x="444" y="430" width="4" height="9" fill="rgb(116,145,235)"/>
<rect x="448" y="430" width="4" height="9" fill="rgb(103,135,235)"/>
<rect x="452" y="430" width="4" height="9" fill="rgb(89,125,236)"/>
<rect x="456" y="430" width="4" height="9" fill="rgb(76,115,236)"/>
<rect x="460" y="430" width="4" height="9" fill="rgb(77,106,229)"/>
<rect x="464" y="430" width="4" height="9" fill="rgb(92,99,213)"/>
<rect x="468" y="430" width="4" height="9" fill="rgb(106,92,197)"/>
<rect x="472" y="430" width="4" height="9" fill="rgb(121,85,182)"/>
<rect x="476" y="430" width="4" height="9" fill="rgb(136,78,166)"/>
<rect x="480" y="430" width="4" height="9" fill="rgb(151,71,150)"/>
<rect x="484" y="430" width="4" height="9" fill="rgb(166,64,135)"/>
<rect x="488" y="430" width="4" height="9" fill="rgb(180,57,119)"/>
<rect x="492" y="430" width="4" height="9" fill="rgb(195,50,103)"/>
<rect x="496" y="430" width="4" height="9" fill="rgb(210,43,88)"/>
<rect x="500" y="430" width="4" height="9" fill="rgb(225,36,72)"/>
<rect x="504" y="430" width="4" height="9" fill="rgb(240,30,57)"/>
<text x="412" y="426" font-family="sans-serif" font-size="9" fill="#475569">MARK0_000 0.0 to 6.21</text>
</svg>