<svg xmlns="http://www.w3.org/2000/svg" viewBox="0 0 48 48" fill="none">
  <defs>
    <linearGradient id="g" x1="0%" y1="0%" x2="100%" y2="100%">
      <stop offset="0%" stop-color="#8b5cf6"/>
      <stop offset="100%" stop-color="#22d3ee"/>
    </linearGradient>
  </defs>
  <!-- Double helix backbone -->
  <path d="M14 4 C14 4, 34 14, 34 24 C34 34, 14 44, 14 44" stroke="#8b5cf6" stroke-width="2.5" fill="none" stroke-linecap="round"/>
  <path d="M34 4 C34 4, 14 14, 14 24 C14 34, 34 44, 34 44" stroke="#22d3ee" stroke-width="2.5" fill="none" stroke-linecap="round"/>
  <!-- Base pair rungs -->
  <line x1="18" y1="10" x2="30" y2="10" stroke="url(#g)" stroke-width="1.8" opacity="0.7" stroke-linecap="round"/>
  <line x1="15" y1="16" x2="33" y2="16" stroke="url(#g)" stroke-width="1.8" opacity="0.7" stroke-linecap="round"/>
  <line x1="15" y1="22" x2="33" y2="22" stroke="url(#g)" stroke-width="1.8" opacity="0.7" stroke-linecap="round"/>
  <line x1="16" y1="28" x2="32" y2="28" stroke="url(#g)" stroke-width="1.8" opacity="0.7" stroke-linecap="round"/>
  <line x1="15" y1="34" x2="33" y2="34" stroke="url(#g)" stroke-width="1.8" opacity="0.7" stroke-linecap="round"/>
  <line x1="18" y1="40" x2="30" y2="40" stroke="url(#g)" stroke-width="1.8" opacity="0.7" stroke-linecap="round"/>
  <!-- Base pair dots -->
  <circle cx="22" cy="10" r="1.5" fill="#e74c3c"/>
  <circle cx="26" cy="10" r="1.5" fill="#3498db"/>
  <circle cx="22" cy="22" r="1.5" fill="#2ecc71"/>
  <circle cx="26" cy="22" r="1.5" fill="#f1c40f"/>
  <circle cx="22" cy="34" r="1.5" fill="#e74c3c"/>
  <circle cx="26" cy="34" r="1.5" fill="#2ecc71"/>
</svg>
