<svg xmlns="http://www.w3.org/2000/svg" viewBox="0 0 128 128" width="128" height="128">
  <defs>
    <linearGradient id="bg" x1="0%" y1="0%" x2="100%" y2="100%">
      <stop offset="0%" style="stop-color:#F4C430"/>
      <stop offset="100%" style="stop-color:#d4a017"/>
    </linearGradient>
  </defs>
  <!-- Rounded square background -->
  <rect x="4" y="4" width="120" height="120" rx="24" fill="url(#bg)"/>
  <!-- Radar/search icon - magnifying glass with signal waves -->
  <!-- Magnifying glass -->
  <circle cx="56" cy="56" r="22" fill="none" stroke="#1a1a2e" stroke-width="5"/>
  <line x1="72" y1="72" x2="96" y2="96" stroke="#1a1a2e" stroke-width="6" stroke-linecap="round"/>
  <!-- Signal waves (radar) -->
  <path d="M 80 32 A 35 35 0 0 1 96 56" fill="none" stroke="#1a1a2e" stroke-width="3.5" stroke-linecap="round" opacity="0.9"/>
  <path d="M 88 22 A 48 48 0 0 1 106 56" fill="none" stroke="#1a1a2e" stroke-width="3" stroke-linecap="round" opacity="0.6"/>
  <path d="M 96 14 A 60 60 0 0 1 114 56" fill="none" stroke="#1a1a2e" stroke-width="2.5" stroke-linecap="round" opacity="0.35"/>
  <!-- DNA helix hint inside magnifying glass -->
  <path d="M 46 45 Q 56 40 66 45 Q 56 50 46 45" fill="none" stroke="#1a1a2e" stroke-width="2.5" opacity="0.7"/>
  <path d="M 46 55 Q 56 50 66 55 Q 56 60 46 55" fill="none" stroke="#1a1a2e" stroke-width="2.5" opacity="0.7"/>
  <path d="M 46 65 Q 56 60 66 65 Q 56 70 46 65" fill="none" stroke="#1a1a2e" stroke-width="2.5" opacity="0.7"/>
</svg>
