<svg viewBox="0 0 800 620" xmlns="http://www.w3.org/2000/svg" style="background: #fff;">
  <defs>
    <linearGradient id="lpBg" x1="0" y1="0" x2="0" y2="1">
      <stop offset="0%" stop-color="#f8fafc"/>
      <stop offset="100%" stop-color="#f1f5f9"/>
    </linearGradient>
    <marker id="lpArr" markerWidth="8" markerHeight="6" refX="8" refY="3" orient="auto">
      <polygon points="0 0,8 3,0 6" fill="#94a3b8"/>
    </marker>
  </defs>

  <rect width="800" height="620" fill="url(#lpBg)" rx="12"/>

  <!-- Title -->
  <text x="400" y="32" text-anchor="middle" font-family="system-ui, -apple-system, sans-serif" font-size="20" font-weight="bold" fill="#0f172a">30-Day Learning Path</text>
  <text x="400" y="52" text-anchor="middle" font-family="system-ui, sans-serif" font-size="13" fill="#64748b">Each week builds on the last, culminating in three capstone projects</text>

  <!-- ===== WEEK 1 ===== -->
  <rect x="30" y="72" width="740" height="88" rx="10" fill="#eff6ff" stroke="#93c5fd" stroke-width="1.5"/>
  <text x="50" y="95" font-family="system-ui, sans-serif" font-size="15" font-weight="bold" fill="#1e40af">Week 1: Foundations</text>
  <text x="50" y="112" font-family="system-ui, sans-serif" font-size="11" fill="#64748b">Understand the biology, learn the language, build your toolkit</text>

  <rect x="50" y="122" width="126" height="28" rx="6" fill="#dbeafe" stroke="#3b82f6" stroke-width="1.2"/>
  <text x="113" y="141" text-anchor="middle" font-family="system-ui, sans-serif" font-size="11" fill="#1e40af">Day 1: Bioinformatics</text>

  <rect x="186" y="122" width="116" height="28" rx="6" fill="#dbeafe" stroke="#3b82f6" stroke-width="1.2"/>
  <text x="244" y="141" text-anchor="middle" font-family="system-ui, sans-serif" font-size="11" fill="#1e40af">Day 2: BioLang</text>

  <rect x="312" y="122" width="116" height="28" rx="6" fill="#dbeafe" stroke="#3b82f6" stroke-width="1.2"/>
  <text x="370" y="141" text-anchor="middle" font-family="system-ui, sans-serif" font-size="11" fill="#1e40af">Day 3: Biology</text>

  <rect x="438" y="122" width="116" height="28" rx="6" fill="#dbeafe" stroke="#3b82f6" stroke-width="1.2"/>
  <text x="496" y="141" text-anchor="middle" font-family="system-ui, sans-serif" font-size="11" fill="#1e40af">Day 4: Coding</text>

  <rect x="564" y="122" width="136" height="28" rx="6" fill="#dbeafe" stroke="#3b82f6" stroke-width="1.2"/>
  <text x="632" y="141" text-anchor="middle" font-family="system-ui, sans-serif" font-size="11" fill="#1e40af">Day 5: Data Structures</text>

  <!-- Arrow Week 1 → Week 2 -->
  <line x1="400" y1="160" x2="400" y2="182" stroke="#94a3b8" stroke-width="2" marker-end="url(#lpArr)"/>

  <!-- ===== WEEK 2 ===== -->
  <rect x="30" y="190" width="740" height="88" rx="10" fill="#fefce8" stroke="#fde047" stroke-width="1.5"/>
  <text x="50" y="213" font-family="system-ui, sans-serif" font-size="15" font-weight="bold" fill="#854d0e">Week 2: Core Skills</text>
  <text x="50" y="230" font-family="system-ui, sans-serif" font-size="11" fill="#64748b">Master file formats, databases, tables, and variant analysis</text>

  <rect x="50" y="240" width="90" height="28" rx="6" fill="#fef9c3" stroke="#eab308" stroke-width="1.2"/>
  <text x="95" y="259" text-anchor="middle" font-family="system-ui, sans-serif" font-size="10" fill="#854d0e">Day 6: FASTQ</text>

  <rect x="148" y="240" width="90" height="28" rx="6" fill="#fef9c3" stroke="#eab308" stroke-width="1.2"/>
  <text x="193" y="259" text-anchor="middle" font-family="system-ui, sans-serif" font-size="10" fill="#854d0e">Day 7: Formats</text>

  <rect x="246" y="240" width="90" height="28" rx="6" fill="#fef9c3" stroke="#eab308" stroke-width="1.2"/>
  <text x="291" y="259" text-anchor="middle" font-family="system-ui, sans-serif" font-size="10" fill="#854d0e">Day 8: Scale</text>

  <rect x="344" y="240" width="90" height="28" rx="6" fill="#fef9c3" stroke="#eab308" stroke-width="1.2"/>
  <text x="389" y="259" text-anchor="middle" font-family="system-ui, sans-serif" font-size="10" fill="#854d0e">Day 9: APIs</text>

  <rect x="442" y="240" width="90" height="28" rx="6" fill="#fef9c3" stroke="#eab308" stroke-width="1.2"/>
  <text x="487" y="259" text-anchor="middle" font-family="system-ui, sans-serif" font-size="10" fill="#854d0e">Day 10: Tables</text>

  <rect x="540" y="240" width="100" height="28" rx="6" fill="#fef9c3" stroke="#eab308" stroke-width="1.2"/>
  <text x="590" y="259" text-anchor="middle" font-family="system-ui, sans-serif" font-size="10" fill="#854d0e">Day 11: Compare</text>

  <rect x="648" y="240" width="102" height="28" rx="6" fill="#fef9c3" stroke="#eab308" stroke-width="1.2"/>
  <text x="699" y="259" text-anchor="middle" font-family="system-ui, sans-serif" font-size="10" fill="#854d0e">Day 12: Variants</text>

  <!-- Arrow Week 2 → Week 3 -->
  <line x1="400" y1="278" x2="400" y2="300" stroke="#94a3b8" stroke-width="2" marker-end="url(#lpArr)"/>

  <!-- ===== WEEK 3 ===== -->
  <rect x="30" y="308" width="740" height="88" rx="10" fill="#f0fdf4" stroke="#86efac" stroke-width="1.5"/>
  <text x="50" y="331" font-family="system-ui, sans-serif" font-size="15" font-weight="bold" fill="#166534">Week 3: Applied Analysis</text>
  <text x="50" y="348" font-family="system-ui, sans-serif" font-size="11" fill="#64748b">RNA-seq, statistics, visualization, proteins, genomic intervals</text>

  <rect x="50" y="358" width="82" height="28" rx="6" fill="#dcfce7" stroke="#22c55e" stroke-width="1.2"/>
  <text x="91" y="377" text-anchor="middle" font-family="system-ui, sans-serif" font-size="10" fill="#166534">Day 13: RNA</text>

  <rect x="140" y="358" width="82" height="28" rx="6" fill="#dcfce7" stroke="#22c55e" stroke-width="1.2"/>
  <text x="181" y="377" text-anchor="middle" font-family="system-ui, sans-serif" font-size="10" fill="#166534">Day 14: Stats</text>

  <rect x="230" y="358" width="82" height="28" rx="6" fill="#dcfce7" stroke="#22c55e" stroke-width="1.2"/>
  <text x="271" y="377" text-anchor="middle" font-family="system-ui, sans-serif" font-size="10" fill="#166534">Day 15: Plots</text>

  <rect x="320" y="358" width="96" height="28" rx="6" fill="#dcfce7" stroke="#22c55e" stroke-width="1.2"/>
  <text x="368" y="377" text-anchor="middle" font-family="system-ui, sans-serif" font-size="10" fill="#166534">Day 16: Pathways</text>

  <rect x="424" y="358" width="90" height="28" rx="6" fill="#dcfce7" stroke="#22c55e" stroke-width="1.2"/>
  <text x="469" y="377" text-anchor="middle" font-family="system-ui, sans-serif" font-size="10" fill="#166534">Day 17: Protein</text>

  <rect x="522" y="358" width="90" height="28" rx="6" fill="#dcfce7" stroke="#22c55e" stroke-width="1.2"/>
  <text x="567" y="377" text-anchor="middle" font-family="system-ui, sans-serif" font-size="10" fill="#166534">Day 18: Intervals</text>

  <rect x="620" y="358" width="72" height="28" rx="6" fill="#dcfce7" stroke="#22c55e" stroke-width="1.2"/>
  <text x="656" y="377" text-anchor="middle" font-family="system-ui, sans-serif" font-size="10" fill="#166534">Day 19: Viz</text>

  <rect x="700" y="358" width="56" height="28" rx="6" fill="#dcfce7" stroke="#22c55e" stroke-width="1.2"/>
  <text x="728" y="377" text-anchor="middle" font-family="system-ui, sans-serif" font-size="10" fill="#166534">Day 20</text>

  <!-- Arrow Week 3 → Week 4 -->
  <line x1="400" y1="396" x2="400" y2="418" stroke="#94a3b8" stroke-width="2" marker-end="url(#lpArr)"/>

  <!-- ===== WEEK 4 ===== -->
  <rect x="30" y="426" width="740" height="88" rx="10" fill="#faf5ff" stroke="#c4b5fd" stroke-width="1.5"/>
  <text x="50" y="449" font-family="system-ui, sans-serif" font-size="15" font-weight="bold" fill="#5b21b6">Week 4: Professional Skills</text>
  <text x="50" y="466" font-family="system-ui, sans-serif" font-size="11" fill="#64748b">Performance, pipelines, batch processing, error handling, AI, plugins</text>

  <rect x="50" y="476" width="90" height="28" rx="6" fill="#ede9fe" stroke="#8b5cf6" stroke-width="1.2"/>
  <text x="95" y="495" text-anchor="middle" font-family="system-ui, sans-serif" font-size="10" fill="#5b21b6">Day 21: Speed</text>

  <rect x="150" y="476" width="96" height="28" rx="6" fill="#ede9fe" stroke="#8b5cf6" stroke-width="1.2"/>
  <text x="198" y="495" text-anchor="middle" font-family="system-ui, sans-serif" font-size="10" fill="#5b21b6">Day 22: Pipelines</text>

  <rect x="256" y="476" width="82" height="28" rx="6" fill="#ede9fe" stroke="#8b5cf6" stroke-width="1.2"/>
  <text x="297" y="495" text-anchor="middle" font-family="system-ui, sans-serif" font-size="10" fill="#5b21b6">Day 23: Batch</text>

  <rect x="346" y="476" width="88" height="28" rx="6" fill="#ede9fe" stroke="#8b5cf6" stroke-width="1.2"/>
  <text x="390" y="495" text-anchor="middle" font-family="system-ui, sans-serif" font-size="10" fill="#5b21b6">Day 24: DB APIs</text>

  <rect x="442" y="476" width="86" height="28" rx="6" fill="#ede9fe" stroke="#8b5cf6" stroke-width="1.2"/>
  <text x="485" y="495" text-anchor="middle" font-family="system-ui, sans-serif" font-size="10" fill="#5b21b6">Day 25: Errors</text>

  <rect x="536" y="476" width="82" height="28" rx="6" fill="#ede9fe" stroke="#8b5cf6" stroke-width="1.2"/>
  <text x="577" y="495" text-anchor="middle" font-family="system-ui, sans-serif" font-size="10" fill="#5b21b6">Day 26: AI</text>

  <rect x="626" y="476" width="96" height="28" rx="6" fill="#ede9fe" stroke="#8b5cf6" stroke-width="1.2"/>
  <text x="674" y="495" text-anchor="middle" font-family="system-ui, sans-serif" font-size="10" fill="#5b21b6">Day 27: Plugins</text>

  <!-- Arrow Week 4 → Capstone -->
  <line x1="400" y1="514" x2="400" y2="536" stroke="#94a3b8" stroke-width="2" marker-end="url(#lpArr)"/>

  <!-- ===== CAPSTONE ===== -->
  <rect x="30" y="544" width="740" height="62" rx="10" fill="#fff7ed" stroke="#fdba74" stroke-width="1.5"/>
  <text x="50" y="568" font-family="system-ui, sans-serif" font-size="15" font-weight="bold" fill="#9a3412">Capstone Projects</text>

  <rect x="210" y="556" width="170" height="40" rx="8" fill="#fed7aa" stroke="#f97316" stroke-width="1.5"/>
  <text x="295" y="573" text-anchor="middle" font-family="system-ui, sans-serif" font-size="11" font-weight="bold" fill="#9a3412">Day 28</text>
  <text x="295" y="588" text-anchor="middle" font-family="system-ui, sans-serif" font-size="10" fill="#9a3412">Clinical Variant Report</text>

  <rect x="400" y="556" width="160" height="40" rx="8" fill="#fed7aa" stroke="#f97316" stroke-width="1.5"/>
  <text x="480" y="573" text-anchor="middle" font-family="system-ui, sans-serif" font-size="11" font-weight="bold" fill="#9a3412">Day 29</text>
  <text x="480" y="588" text-anchor="middle" font-family="system-ui, sans-serif" font-size="10" fill="#9a3412">RNA-seq DE Study</text>

  <rect x="580" y="556" width="170" height="40" rx="8" fill="#fed7aa" stroke="#f97316" stroke-width="1.5"/>
  <text x="665" y="573" text-anchor="middle" font-family="system-ui, sans-serif" font-size="11" font-weight="bold" fill="#9a3412">Day 30</text>
  <text x="665" y="588" text-anchor="middle" font-family="system-ui, sans-serif" font-size="10" fill="#9a3412">Multi-Species Analysis</text>
</svg>
